<svg xmlns="http://www.w3.org/2000/svg" xmlns:xlink="http://www.w3.org/1999/xlink">

  <symbol id="settings-cog" viewBox="0 0 24 24">
    <path
      stroke-linecap="round"
      stroke-linejoin="round"
      d="M9.594 3.94c.09-.542.56-.94 1.11-.94h2.593c.55 0 1.02.398 1.11.94l.213 1.281c.063.374.313.686.645.87.074.04.147.083.22.127.324.196.72.257 1.075.124l1.217-.456a1.125 1.125 0 011.37.49l1.296 2.247a1.125 1.125 0 01-.26 1.431l-1.003.827c-.293.24-.438.613-.431.992a6.759 6.759 0 010 .255c-.007.378.138.75.43.99l1.005.828c.424.35.534.954.26 1.43l-1.298 2.247a1.125 1.125 0 01-1.369.491l-1.217-.456c-.355-.133-.75-.072-1.076.124a6.57 6.57 0 01-.22.128c-.331.183-.581.495-.644.869l-.213 1.28c-.09.543-.56.941-1.11.941h-2.594c-.55 0-1.02-.398-1.11-.94l-.213-1.281c-.062-.374-.312-.686-.644-.87a6.52 6.52 0 01-.22-.127c-.325-.196-.72-.257-1.076-.124l-1.217.456a1.125 1.125 0 01-1.369-.49l-1.297-2.247a1.125 1.125 0 01.26-1.431l1.004-.827c.292-.24.437-.613.43-.992a6.932 6.932 0 010-.255c.007-.378-.138-.75-.43-.99l-1.004-.828a1.125 1.125 0 01-.26-1.43l1.297-2.247a1.125 1.125 0 011.37-.491l1.216.456c.356.133.751.072 1.076-.124.072-.044.146-.087.22-.128.332-.183.582-.495.644-.869l.214-1.281z"
    />
    <path
      stroke-linecap="round"
      stroke-linejoin="round"
      d="M15 12a3 3 0 11-6 0 3 3 0 016 0z"
    />
  </symbol>

  <symbol id="no-vote" viewBox="0 0 100 100">
		<path
			d="M23.5349 18.9717L81.612 77.0488M94 50C94 74.3005 74.3005 94 50 94C25.6995 94 6 74.3005 6 50C6 25.6995 25.6995 6 50 6C74.3005 6 94 25.6995 94 50Z"
			stroke="currentColor"
			stroke-width="11"
		/>
  </symbol>

  <symbol id="save" viewBox="0 0 80 80">
    <path
      d="M37.0538 40.1651C39.4957 38.7552 42.5043 38.7552 44.9462 40.1651C47.388 41.5749 48.8923 44.1804 48.8923 47C48.8923 49.8196 47.388 52.4251 44.9462 53.8349C42.5043 55.2448 39.4957 55.2448 37.0538 53.8349C34.612 52.4251 33.1077 49.8196 33.1077 47C33.1077 44.1804 34.612 41.5749 37.0538 40.1651Z"
      fill="currentColor"
    ></path>
    <path
      fill-rule="evenodd"
      clip-rule="evenodd"
      d="M16 12H17.5V27C17.5 28.933 19.067 30.5 21 30.5H47C48.933 30.5 50.5 28.933 50.5 27V12.0031C51.5039 12.0424 52.4585 12.4585 53.1716 13.1716L66.8284 26.8284C67.5786 27.5786 68 28.596 68 29.6569V64C68 66.2091 66.2091 68 64 68H16C13.7909 68 12 66.2091 12 64V16C12 13.7909 13.7909 12 16 12ZM47.4462 35.8349C43.4573 33.5319 38.5427 33.5319 34.5538 35.8349C30.565 38.1379 28.1077 42.394 28.1077 47C28.1077 51.606 30.565 55.8621 34.5538 58.1651C38.5427 60.4681 43.4573 60.4681 47.4462 58.1651C51.435 55.8621 53.8923 51.606 53.8923 47C53.8923 42.394 51.435 38.1379 47.4462 35.8349Z"
      fill="currentColor"
    ></path>
    <path
      d="M22.5 12H45.5V25.5H22.5V12Z"
      fill="currentColor"
    ></path>
  </symbol>

  <symbol id="caret-down" viewBox="0 0 24 24">
    <path
      stroke-linecap="round"
      stroke-linejoin="round"
      d="M8.25 4.5l7.5 7.5-7.5 7.5"
    />
  </symbol>

  <symbol id="refresh" fill="none" viewBox="0 0 24 24" stroke="currentColor" stroke-width="1.5">
    <path stroke-linecap="round" stroke-linejoin="round" d="M16.023 9.348h4.992v-.001M2.985 19.644v-4.992m0 0h4.992m-4.993 0l3.181 3.183a8.25 8.25 0 0013.803-3.7M4.031 9.865a8.25 8.25 0 0113.803-3.7l3.181 3.182m0-4.991v4.99" />
  </symbol>

  <symbol id="github" viewBox="0 0 24 24">
    <path fill-rule="evenodd" clip-rule="evenodd" d="M12 2C6.477 2 2 6.463 2 11.97c0 4.404 2.865 8.14 6.839 9.458.5.092.682-.216.682-.48 0-.236-.008-.864-.013-1.695-2.782.602-3.369-1.337-3.369-1.337-.454-1.151-1.11-1.458-1.11-1.458-.908-.618.069-.606.069-.606 1.003.07 1.531 1.027 1.531 1.027.892 1.524 2.341 1.084 2.91.828.092-.643.35-1.083.636-1.332-2.22-.251-4.555-1.107-4.555-4.927 0-1.088.39-1.979 1.029-2.675-.103-.252-.446-1.266.098-2.638 0 0 .84-.268 2.75 1.022A9.607 9.607 0 0 1 12 6.82c.85.004 1.705.114 2.504.336 1.909-1.29 2.747-1.022 2.747-1.022.546 1.372.202 2.386.1 2.638.64.696 1.028 1.587 1.028 2.675 0 3.83-2.339 4.673-4.566 4.92.359.307.678.915.678 1.846 0 1.332-.012 2.407-.012 2.734 0 .267.18.577.688.48 3.97-1.32 6.833-5.054 6.833-9.458C22 6.463 17.522 2 12 2Z"></path>
  </symbol>

  <symbol id="ellipsis-vertical" viewBox="0 0 24 24" stroke-width="1.5" stroke="currentColor">
    <path stroke-linecap="round" stroke-linejoin="round" d="M12 6.75a.75.75 0 110-1.5.75.75 0 010 1.5zM12 12.75a.75.75 0 110-1.5.75.75 0 010 1.5zM12 18.75a.75.75 0 110-1.5.75.75 0 010 1.5z" />
  </symbol>

  <symbol id="user-solid" viewBox="0 0 24 24" fill="currentColor">
    <path fill-rule="evenodd" d="M7.5 6a4.5 4.5 0 119 0 4.5 4.5 0 01-9 0zM3.751 20.105a8.25 8.25 0 0116.498 0 .75.75 0 01-.437.695A18.683 18.683 0 0112 22.5c-2.786 0-5.433-.608-7.812-1.7a.75.75 0 01-.437-.695z" clip-rule="evenodd" />
  </symbol>
</svg>